<svg width="50" height="50" viewBox="0 0 50 50" fill="none" xmlns="http://www.w3.org/2000/svg">
<path d="M25.2832 49.5313C11.7578 49.5996 0.644532 38.3399 0.966798 24.6094C1.25977 11.5235 12.1094 0.683614 25.6152 0.84963C38.9551 1.01565 49.9707 12.1192 49.6191 25.8496C49.2871 38.8867 38.5449 49.5899 25.2832 49.5313ZM3.92578 25.1856C4.01367 37.1582 13.4863 46.4942 24.8633 46.6602C36.9336 46.836 46.6211 37.3145 46.6504 25.2246C46.6602 13.2422 37.0996 3.93557 25.7031 3.71096C13.9746 3.48635 4.02344 12.9199 3.92578 25.1856Z" fill="#F3B541"/>
<path d="M40.3516 25.5176C40.3516 27.6465 40.2931 29.7852 40.3614 31.9141C40.5079 36.0059 37.5587 39.4239 33.6622 40.4004C32.9005 40.5957 32.0899 40.7129 31.3087 40.7227C27.1778 40.752 23.047 40.791 18.9161 40.7227C15.4688 40.6641 12.754 39.1992 10.918 36.2207C10.2149 35.0781 9.86336 33.8086 9.86336 32.461C9.85359 27.8223 9.81453 23.1836 9.87313 18.5547C9.91219 15.5274 11.4259 13.291 13.9356 11.6895C15.4981 10.6934 17.2266 10.2442 19.0723 10.2442C23.1055 10.2344 27.1388 10.1953 31.172 10.2539C34.7266 10.3028 37.5391 11.7871 39.3653 14.9121C40.0196 16.0352 40.3516 17.2754 40.3516 18.5938C40.3419 20.8985 40.3516 23.2129 40.3516 25.5176ZM12.1095 25.4981C12.1095 27.7246 12.1095 29.961 12.1095 32.1875C12.1095 33.0762 12.2755 33.9356 12.6954 34.7266C14.043 37.2656 16.2501 38.418 19.0333 38.4571C23.0665 38.5156 27.1095 38.4864 31.1427 38.4571C31.836 38.4571 32.5391 38.3399 33.213 38.1641C35.8985 37.4414 38.1837 35.1172 38.1056 31.709C38.0079 27.4121 38.086 23.1153 38.086 18.8184C38.086 17.8711 37.9102 16.9727 37.4513 16.1426C36.0743 13.6719 33.877 12.5488 31.1427 12.5098C27.1192 12.4512 23.1055 12.4707 19.0821 12.5098C18.2813 12.5195 17.461 12.666 16.6895 12.9004C14.0626 13.711 11.9923 16.0449 12.0997 19.1895C12.168 21.2988 12.1095 23.3985 12.1095 25.4981Z" fill="#F3B541"/>
<path d="M25.1074 17.8711C29.082 17.8614 32.3047 21.0352 32.3047 24.9414C32.2949 28.8281 29.082 32.002 25.1465 32.0117C21.1816 32.0215 17.9688 28.8574 17.9688 24.9317C17.9688 21.0352 21.1523 17.8809 25.1074 17.8711ZM25.1074 20.1367C22.4316 20.1465 20.2246 22.3242 20.2344 24.9512C20.2441 27.5781 22.4414 29.7363 25.1367 29.7461C27.8223 29.7461 30.0293 27.5879 30.0391 24.961C30.0293 22.2949 27.8125 20.127 25.1074 20.1367Z" fill="#F3B541"/>
<path d="M34.6484 17.2559C34.668 18.086 33.9844 18.8184 33.1738 18.8477C32.3437 18.877 31.6308 18.1738 31.6211 17.3047C31.6113 16.4551 32.2656 15.7422 33.0762 15.7129C33.9062 15.6836 34.6289 16.3965 34.6484 17.2559Z" fill="#F3B541"/>
</svg>
