<svg width="30" height="30" viewBox="0 0 30 30" fill="none" xmlns="http://www.w3.org/2000/svg">
<path d="M20.6727 9H9.32722C8.15244 9 7.19995 9.8955 7.19995 11V19C7.19995 20.1045 8.15244 21 9.32722 21H20.6727C21.8475 21 22.8 20.1045 22.8 19V11C22.8 9.8955 21.8475 9 20.6727 9ZM20.6727 10.3333C20.754 10.3333 20.831 10.3488 20.9037 10.3725L15 14.8128L9.09624 10.3725C9.1691 10.3488 9.24586 10.3333 9.32722 10.3333H20.6727ZM20.6727 19.6667H9.32722C8.93545 19.6667 8.61813 19.3683 8.61813 19V11.7205L14.5569 16.1872C14.6864 16.2847 14.8432 16.3333 15 16.3333C15.1567 16.3333 15.3135 16.2847 15.443 16.1872L21.3818 11.7205V19C21.3818 19.3683 21.0645 19.6667 20.6727 19.6667Z" fill="white"/>
<circle cx="15" cy="15" r="14" stroke="white" stroke-width="2"/>
</svg>
