<svg width="38" height="40" viewBox="0 0 38 40" fill="none" xmlns="http://www.w3.org/2000/svg">
<path d="M17.9167 20C19.8946 20 21.828 19.4136 23.4724 18.3147C25.1169 17.2159 26.3987 15.6541 27.1555 13.8269C27.9124 11.9996 28.1104 9.98893 27.7246 8.04912C27.3387 6.1093 26.3863 4.32747 24.9878 2.92894C23.5893 1.53041 21.8075 0.578005 19.8676 0.192152C17.9278 -0.193701 15.9172 0.00433284 14.0899 0.761211C12.2627 1.51809 10.7009 2.79982 9.60205 4.44431C8.50324 6.08881 7.91675 8.02221 7.91675 10C7.91675 12.6522 8.97032 15.1957 10.8457 17.0711C12.721 18.9465 15.2646 20 17.9167 20ZM17.9167 2.85715C19.3295 2.85715 20.7105 3.27608 21.8851 4.06094C23.0597 4.84581 23.9753 5.96138 24.5159 7.26657C25.0565 8.57176 25.198 10.0079 24.9224 11.3935C24.6467 12.7791 23.9665 14.0519 22.9675 15.0508C21.9686 16.0497 20.6958 16.73 19.3102 17.0056C17.9247 17.2813 16.4885 17.1398 15.1833 16.5992C13.8781 16.0586 12.7625 15.143 11.9777 13.9684C11.1928 12.7938 10.7739 11.4128 10.7739 10C10.7739 8.10562 11.5264 6.2888 12.866 4.94925C14.2055 3.6097 16.0223 2.85715 17.9167 2.85715Z" fill="#1E449A"/>
<path d="M20.5833 22.8571H17.4167C12.7975 22.8571 8.36748 24.5128 5.10122 27.4598C1.83497 30.4068 0 34.4038 0 38.5714C0 38.9503 0.166815 39.3137 0.463748 39.5816C0.76068 39.8495 1.16341 40 1.58333 40H36.4167C36.8366 40 37.2393 39.8495 37.5363 39.5816C37.8332 39.3137 38 38.9503 38 38.5714C38 34.4038 36.165 30.4068 32.8988 27.4598C29.6325 24.5128 25.2025 22.8571 20.5833 22.8571ZM3.26167 37.1429C3.651 34.0009 5.30973 31.0986 7.92091 28.9903C10.5321 26.8821 13.9127 25.7158 17.4167 25.7143H20.5833C24.0873 25.7158 27.4679 26.8821 30.0791 28.9903C32.6903 31.0986 34.349 34.0009 34.7383 37.1429H3.26167Z" fill="#1E449A"/>
</svg>
