<svg width="38" height="34" viewBox="0 0 38 34" fill="none" xmlns="http://www.w3.org/2000/svg">
<path d="M20.5776 4.13402H20.5739C20.4853 2.16782 18.8212 0.6 16.8131 0.6H4.36449C2.30056 0.6 0.6 2.25624 0.6 4.29897V29.701C0.6 31.7438 2.30056 33.4 4.36449 33.4H33.6355C35.6994 33.4 37.4 31.7438 37.4 29.701V13.2062C37.4 11.3979 36.0757 9.92874 34.372 9.59503V9.57732C34.372 7.53459 32.6714 5.87835 30.6075 5.87835H22.1963C21.3397 5.87835 20.5776 5.03607 20.5776 4.13402ZM4.36449 31.2804C3.46767 31.2804 2.74579 30.5614 2.74579 29.701V4.29897C2.74579 3.4386 3.46767 2.71959 4.36449 2.71959H16.8131C17.7099 2.71959 18.4318 3.4386 18.4318 4.29897C18.4318 6.34169 20.1323 7.99794 22.1963 7.99794H30.6075C31.4798 7.99794 32.1866 8.67825 32.2246 9.50722H9.74766C7.68373 9.50722 5.98318 11.1635 5.98318 13.2062V29.701C5.98318 30.5614 5.2613 31.2804 4.36449 31.2804ZM35.2542 29.701C35.2542 30.5614 34.5323 31.2804 33.6355 31.2804H7.77221C8.00639 30.7934 8.12897 30.2549 8.12897 29.701V13.2062C8.12897 12.3458 8.85084 11.6268 9.74766 11.6268H33.6355C34.5323 11.6268 35.2542 12.3458 35.2542 13.2062V29.701Z" fill="#1D4198" stroke="#1D4298" stroke-width="0.8"/>
</svg>
