<svg width="60" height="60" viewBox="0 0 60 60" fill="none" xmlns="http://www.w3.org/2000/svg">
<circle cx="30" cy="30" r="30" fill="#F3B541"/>
<path d="M8.075 21.5H16.025C17.925 21.5 19.6 21.8667 21.05 22.6C22.5167 23.3167 23.65 24.3333 24.45 25.65C25.2667 26.9667 25.675 28.5 25.675 30.25C25.675 32 25.2667 33.5333 24.45 34.85C23.65 36.1667 22.5167 37.1917 21.05 37.925C19.6 38.6417 17.925 39 16.025 39H8.075V21.5ZM15.825 35.675C17.575 35.675 18.9667 35.1917 20 34.225C21.05 33.2417 21.575 31.9167 21.575 30.25C21.575 28.5833 21.05 27.2667 20 26.3C18.9667 25.3167 17.575 24.825 15.825 24.825H12.125V35.675H15.825ZM29.441 39.2C28.7577 39.2 28.1827 38.9667 27.716 38.5C27.2493 38.0333 27.016 37.45 27.016 36.75C27.016 36.0333 27.2493 35.4583 27.716 35.025C28.1827 34.575 28.7577 34.35 29.441 34.35C30.1243 34.35 30.6993 34.575 31.166 35.025C31.6327 35.4583 31.866 36.0333 31.866 36.75C31.866 37.45 31.6327 38.0333 31.166 38.5C30.6993 38.9667 30.1243 39.2 29.441 39.2ZM34.784 21.5H42.734C44.634 21.5 46.309 21.8667 47.759 22.6C49.2257 23.3167 50.359 24.3333 51.159 25.65C51.9757 26.9667 52.384 28.5 52.384 30.25C52.384 32 51.9757 33.5333 51.159 34.85C50.359 36.1667 49.2257 37.1917 47.759 37.925C46.309 38.6417 44.634 39 42.734 39H34.784V21.5ZM42.534 35.675C44.284 35.675 45.6757 35.1917 46.709 34.225C47.759 33.2417 48.284 31.9167 48.284 30.25C48.284 28.5833 47.759 27.2667 46.709 26.3C45.6757 25.3167 44.284 24.825 42.534 24.825H38.834V35.675H42.534Z" fill="#1D4298"/>
</svg>
