<svg width="50" height="50" viewBox="0 0 50 50" fill="none" xmlns="http://www.w3.org/2000/svg">
<g clip-path="url(#clip0)">
<path d="M24.9897 49.9997C11.6498 50.0643 0.688897 39.4253 1.00674 26.4517C1.29569 14.0872 11.9965 3.84491 25.3172 4.00178C38.4741 4.15864 49.3387 14.65 48.9919 27.6236C48.6644 39.942 38.0696 50.0551 24.9897 49.9997ZM3.92515 26.9961C4.01184 38.3088 13.3546 47.13 24.5755 47.2869C36.4803 47.453 46.035 38.4564 46.0639 27.033C46.0735 15.7112 36.6441 6.91759 25.4039 6.70537C13.8362 6.49314 4.02147 15.4067 3.92515 26.9961Z" fill="#F3B541"/>
<path d="M34.3333 17.125H15.6666C13.7338 17.125 12.1666 18.5242 12.1666 20.25V32.75C12.1666 34.4758 13.7338 35.875 15.6666 35.875H34.3333C36.2662 35.875 37.8333 34.4758 37.8333 32.75V20.25C37.8333 18.5242 36.2662 17.125 34.3333 17.125ZM34.3333 19.2083C34.4672 19.2083 34.5937 19.2326 34.7133 19.2695L25 26.2076L15.2866 19.2695C15.4065 19.2326 15.5328 19.2083 15.6666 19.2083H34.3333ZM34.3333 33.7917H15.6666C15.022 33.7917 14.5 33.3255 14.5 32.75V21.3758L24.2711 28.355C24.484 28.5073 24.7421 28.5833 25 28.5833C25.2578 28.5833 25.5159 28.5073 25.7288 28.355L35.5 21.3758V32.75C35.5 33.3255 34.9779 33.7917 34.3333 33.7917Z" fill="#F3B541"/>
</g>
<defs>
<clipPath id="clip0">
<rect width="50" height="50" fill="white"/>
</clipPath>
</defs>
</svg>
