<svg width="50" height="50" viewBox="0 0 50 50" fill="none" xmlns="http://www.w3.org/2000/svg">
<circle cx="25" cy="25" r="23.5" stroke="#1F459B" stroke-width="3"/>
<path d="M34.9545 21C32.7237 21 30.9089 22.8435 30.9089 25.1096C30.9089 27.3758 32.7237 29.2193 34.9545 29.2193C37.1853 29.2193 39.0001 27.3758 39.0001 25.1096C39.0001 22.8435 37.1853 21 34.9545 21ZM34.9545 27.2276C33.8051 27.2276 32.8695 26.2779 32.8695 25.1096C32.8695 23.9414 33.8045 22.9917 34.9545 22.9917C36.1045 22.9917 37.0395 23.942 37.0395 25.1096C37.0395 26.2773 36.1045 27.2276 34.9545 27.2276Z" fill="#1F459B"/>
<path d="M20.9543 25.1096C20.9543 27.3758 22.7691 29.2193 24.9999 29.2193C27.2307 29.2193 29.0455 27.3758 29.0455 25.1096C29.0455 22.8435 27.2307 21 24.9999 21C22.7691 21 20.9543 22.8435 20.9543 25.1096ZM27.0849 25.1096C27.0849 26.2773 26.15 27.2276 24.9999 27.2276C23.8499 27.2276 22.915 26.2779 22.915 25.1096C22.915 23.9414 23.8499 22.9917 24.9999 22.9917C26.15 22.9917 27.0849 23.942 27.0849 25.1096Z" fill="#1F459B"/>
<path d="M15.0456 29.2193C17.2764 29.2193 19.0912 27.3758 19.0912 25.1096C19.0912 22.8435 17.2764 21 15.0456 21C12.8148 21 11 22.8435 11 25.1096C11 27.3758 12.8148 29.2193 15.0456 29.2193ZM15.0456 22.9917C16.195 22.9917 17.1306 23.9414 17.1306 25.1096C17.1306 26.2779 16.1956 27.2276 15.0456 27.2276C13.8956 27.2276 12.9606 26.2773 12.9606 25.1096C12.9606 23.942 13.8956 22.9917 15.0456 22.9917Z" fill="#1F459B"/>
</svg>
