<svg width="50" height="50" viewBox="0 0 50 50" fill="none" xmlns="http://www.w3.org/2000/svg">
<circle cx="25" cy="25" r="23.5" stroke="#1D4198" stroke-width="3"/>
<path d="M26.3369 16.9588H26.3346C26.2829 15.7957 25.3601 14.85 24.2243 14.85H16.9626C15.7934 14.85 14.85 15.8521 14.85 17.0619V32.9381C14.85 34.148 15.7934 35.15 16.9626 35.15H34.0374C35.2066 35.15 36.15 34.148 36.15 32.9381V22.6289C36.15 21.5322 35.3804 20.6298 34.3836 20.4571V20.3608C34.3836 19.151 33.4402 18.149 32.271 18.149H27.3645C27.0937 18.149 26.8384 18.0109 26.6469 17.7866C26.4553 17.5622 26.3369 17.2613 26.3369 16.9588ZM16.9626 34.0253C16.4047 34.0253 15.935 33.5428 15.935 32.9381V17.0619C15.935 16.4572 16.4047 15.9747 16.9626 15.9747H24.2243C24.7822 15.9747 25.2519 16.4572 25.2519 17.0619C25.2519 18.2717 26.1953 19.2737 27.3645 19.2737H32.271C32.829 19.2737 33.2986 19.7562 33.2986 20.3608V20.417H20.1028C18.9336 20.417 17.9902 21.4191 17.9902 22.6289V32.9381C17.9902 33.5428 17.5206 34.0253 16.9626 34.0253ZM35.065 32.9381C35.065 33.5428 34.5953 34.0253 34.0374 34.0253H18.8043C18.9818 33.6982 19.0752 33.3244 19.0752 32.9381V22.6289C19.0752 22.0242 19.5449 21.5418 20.1028 21.5418H34.0374C34.5953 21.5418 35.065 22.0242 35.065 22.6289V32.9381Z" fill="#1D4198" stroke="#1D4298" stroke-width="0.3"/>
</svg>
