<svg width="50" height="50" viewBox="0 0 50 50" fill="none" xmlns="http://www.w3.org/2000/svg">
<circle cx="25" cy="25" r="23.5" stroke="#1E4399" stroke-width="3"/>
<path fill-rule="evenodd" clip-rule="evenodd" d="M31 36.022V36.9913H33C33.5523 36.9913 34 36.5807 34 36.0747V20.3819H29.9979C28.8945 20.3819 28 19.5639 28 18.531V13.9227H17.9956C17.4457 13.9227 17 14.3428 17 14.8413V36.0728C17 36.5801 17.4547 36.9913 18 36.9913H26V36.022C25.3814 35.4395 25 34.6417 25 33.7617C25 31.9781 26.567 30.5321 28.5 30.5321C30.433 30.5321 32 31.9781 32 33.7617C32 34.6417 31.6186 35.4395 31 36.022ZM27 36.6805V40.3132L28.5 38.9291L30 40.3132V36.6805C29.5454 36.8798 29.0368 36.9913 28.5 36.9913C27.9632 36.9913 27.4546 36.8798 27 36.6805ZM31 37.9141H33.0026C34.1057 37.9141 35 37.0852 35 36.0771V19.4592L29 13H18.0028C16.8967 13 16 13.8289 16 14.8522V36.0618C16 37.0848 16.8909 37.9141 17.9974 37.9141H26V42.5278L28.5 40.2209L31 42.5278V37.9141ZM29 14.3841V18.5284C29 19.0424 29.4507 19.4592 29.9967 19.4592H33.7L29 14.3841ZM19 19.4592V20.3819H26V19.4592H19ZM19 16.691V17.6137H26V16.691H19ZM19 22.2274V23.1502H32V22.2274H19ZM19 24.9957V25.9184H32V24.9957H19ZM19 27.7639V28.6866H32V27.7639H19ZM28.5 36.0686C29.8807 36.0686 31 35.0358 31 33.7617C31 32.4877 29.8807 31.4549 28.5 31.4549C27.1193 31.4549 26 32.4877 26 33.7617C26 35.0358 27.1193 36.0686 28.5 36.0686Z" fill="#1E4399" stroke="#1E4399" stroke-width="0.3"/>
</svg>
