<svg width="50" height="50" viewBox="0 0 50 50" fill="none" xmlns="http://www.w3.org/2000/svg">
<circle cx="25" cy="25" r="23.5" stroke="#1E449A" stroke-width="3"/>
<path d="M25 25.3389C26.3845 25.3389 27.7378 24.9477 28.889 24.2149C30.0401 23.482 30.9373 22.4404 31.4672 21.2217C31.997 20.003 32.1356 18.662 31.8655 17.3683C31.5954 16.0746 30.9287 14.8862 29.9497 13.9534C28.9708 13.0207 27.7235 12.3855 26.3656 12.1282C25.0078 11.8708 23.6003 12.0029 22.3212 12.5077C21.0421 13.0125 19.9489 13.8673 19.1797 14.9641C18.4105 16.0609 18 17.3503 18 18.6694C18 20.4383 18.7375 22.1347 20.0503 23.3854C21.363 24.6362 23.1435 25.3389 25 25.3389ZM25 13.9056C25.9889 13.9056 26.9556 14.185 27.7778 14.7084C28.6001 15.2319 29.241 15.9759 29.6194 16.8464C29.9978 17.7169 30.0968 18.6747 29.9039 19.5988C29.711 20.5229 29.2348 21.3718 28.5355 22.038C27.8363 22.7042 26.9454 23.158 25.9755 23.3418C25.0055 23.5256 24.0002 23.4313 23.0866 23.0707C22.173 22.7101 21.3921 22.0995 20.8427 21.3161C20.2932 20.5327 20 19.6116 20 18.6694C20 17.406 20.5268 16.1943 21.4645 15.3009C22.4021 14.4075 23.6739 13.9056 25 13.9056Z" fill="#1E449A"/>
<path d="M26 27.2444H24C21.0826 27.2444 18.2847 28.3486 16.2218 30.3141C14.1589 32.2795 13 34.9453 13 37.7249C13 37.9776 13.1054 38.2199 13.2929 38.3986C13.4804 38.5773 13.7348 38.6777 14 38.6777H36C36.2652 38.6777 36.5196 38.5773 36.7071 38.3986C36.8946 38.2199 37 37.9776 37 37.7249C37 34.9453 35.8411 32.2795 33.7782 30.3141C31.7153 28.3486 28.9174 27.2444 26 27.2444ZM15.06 36.7721C15.3059 34.6766 16.3535 32.7409 18.0027 31.3349C19.6518 29.9288 21.7869 29.1509 24 29.1499H26C28.2131 29.1509 30.3482 29.9288 31.9973 31.3349C33.6465 32.7409 34.6941 34.6766 34.94 36.7721H15.06Z" fill="#1E449A"/>
</svg>
