<svg width="45" height="38" viewBox="0 0 45 38" fill="none" xmlns="http://www.w3.org/2000/svg">
<path d="M25.1231 24.6972V24.4472H24.8731H20.3731H20.1231V24.6972V34.1992C20.1231 35.126 19.6875 36.0254 18.8937 36.6958C18.0987 37.3673 17.0126 37.75 15.8731 37.75H9.12307C7.98353 37.75 6.89744 37.3673 6.1024 36.6958C5.30863 36.0254 4.87307 35.126 4.87307 34.1992V19.7752V19.2368L4.46176 19.5842L3.78676 20.1544L3.7801 20.16L3.77386 20.166C3.59528 20.3395 3.37377 20.4823 3.12197 20.5832C2.87017 20.6842 2.59497 20.7407 2.31391 20.7481C2.03285 20.7555 1.75367 20.7138 1.49427 20.6261C1.23486 20.5385 1.00237 20.4074 0.810414 20.2429C0.618546 20.0785 0.471927 19.885 0.376949 19.6759C0.282084 19.4671 0.240079 19.2459 0.251969 19.0255C0.263863 18.8051 0.329596 18.5871 0.447338 18.3851C0.565214 18.1829 0.733203 18.0002 0.943269 17.8503L0.951582 17.8444L0.959385 17.8378L21.2075 0.735811C21.2078 0.735574 21.2081 0.735338 21.2084 0.735102C21.5804 0.427474 22.0878 0.25 22.6231 0.25C23.1583 0.25 23.6658 0.427474 24.0378 0.735102C24.0381 0.735338 24.0384 0.735574 24.0386 0.735811L44.2799 17.832C44.6017 18.1476 44.7639 18.5449 44.7491 18.9439C44.7341 19.3457 44.5401 19.7376 44.1896 20.0379C43.838 20.3391 43.3576 20.5224 42.8428 20.5422C42.3316 20.5619 41.8352 20.4185 41.4514 20.1476L40.7844 19.5842L40.3731 19.2368V19.7752V34.1992C40.3731 35.126 39.9375 36.0254 39.1437 36.6958C38.3487 37.3673 37.2626 37.75 36.1231 37.75H29.3731C28.2335 37.75 27.1474 37.3673 26.3524 36.6958C25.5586 36.0254 25.1231 35.126 25.1231 34.1992V24.6972ZM36.1231 34.4492H36.3731V34.1992V15.9744V15.8584L36.2844 15.7834L22.7844 4.38109L22.6231 4.24484L22.4618 4.38109L8.96175 15.7834L8.87307 15.8584V15.9744V34.1992V34.4492H9.12307H15.8731H16.1231V34.1992V24.6972C16.1231 22.7828 17.9949 21.1465 20.3731 21.1465H24.8731C26.0126 21.1465 27.0987 21.5292 27.8937 22.2007C28.6875 22.8711 29.1231 23.7705 29.1231 24.6972V34.1992V34.4492H29.3731H36.1231Z" fill="#1D4198" stroke="#F3B541" stroke-width="0.5"/>
</svg>
